<?xml version="1.0" encoding="UTF-8"?>
<!-- This Source Code Form is subject to the terms of the Mozilla Public
	 - License, v. 2.0. If a copy of the MPL was not distributed with this
	 - file, You can obtain one at http://mozilla.org/MPL/2.0/. -->
<svg xmlns="http://www.w3.org/2000/svg" viewBox="0 0 24 24">
	<style>
		use:not(:target) {
			display: none;
		}
		use {
			fill: #fbfbfb;
			stroke: rgba(0,0,0,0.4);
			stroke-width: .5px;
		}
		use[id$="-native"] {
			fill: ThreeDHighlight;
		}
	</style>

	<defs>
		<g id="general-shape">
			<path d="M18.97,3H5.03C3.914,3,3,3.914,3,5.03v13.94C3,20.086,3.914,21,5.03,21H18.97c1.117,0,2.03-0.914,2.03-2.03 V5.03C21,3.914,20.086,3,18.97,3z M5.35,19.326c-0.404,0-0.731-0.327-0.731-0.731c0-0.404,0.327-0.731,0.731-0.731 c0.404,0,0.731,0.327,0.731,0.731C6.081,19,5.754,19.326,5.35,19.326z M5.35,6.168c-0.403,0-0.731-0.328-0.731-0.731 c0-0.404,0.328-0.731,0.731-0.731c0.403,0,0.731,0.327,0.731,0.731C6.081,5.84,5.753,6.168,5.35,6.168z M15.243,14.035 c0,0.229-0.186,0.416-0.414,0.416c-0.229,0-0.415,0.186-0.415,0.414v3.347c0,0.228-0.185,0.384-0.414,0.384l-4.141,0.03 c-0.227,0-0.414-0.186-0.414-0.414v-3.347c0-0.228-0.185-0.414-0.414-0.414c-0.227,0-0.414-0.187-0.414-0.416V6.582 c0-0.229,0.187-0.414,0.414-0.414h5.798c0.228,0,0.414,0.185,0.414,0.414V14.035z M18.509,19.326c-0.404,0-0.731-0.327-0.731-0.731 c0-0.404,0.327-0.731,0.731-0.731c0.404,0,0.731,0.327,0.731,0.731C19.24,19,18.913,19.326,18.509,19.326z M18.509,6.168 c-0.404,0-0.731-0.328-0.731-0.731c0-0.404,0.327-0.731,0.731-0.731c0.404,0,0.731,0.327,0.731,0.731 C19.24,5.84,18.913,6.168,18.509,6.168z"/>
			<path d="M12.757,7.824h-1.657c-0.456,0-0.828,0.373-0.828,0.828v8.282c0,0.456,0.373,0.828,0.828,0.828h1.657 c0.456,0,0.828-0.373,0.828-0.828V8.652C13.586,8.196,13.213,7.824,12.757,7.824z"/>
		</g>
		<g id="home-shape">
			<path
				d="M14 8L8 3 2 8H0l8-7 8 7zm-1 0v7H9v-5H7v5H3V8l5-4z"
				style="transform: scale(1.5)"
			/>
		</g>
		<g id="privacy-shape">
			<path d="M18.909,9.783h-0.863V8.086C18.046,4.725,15.339,2,12,2 C8.661,2,5.954,4.725,5.954,8.086v1.697H5.091c-0.955,0-1.728,0.779-1.728,1.739v8.738c0,0.961,0.773,1.74,1.728,1.74h13.818 c0.954,0,1.728-0.779,1.728-1.74v-8.738C20.637,10.562,19.863,9.783,18.909,9.783z M8.545,8.086c0-1.92,1.547-3.478,3.455-3.478 c1.908,0,3.455,1.557,3.455,3.478v1.697h-6.91V8.086z M5.181,16.092l-0.909-1.2v-2.284l2.728,3.483H5.181z M8.818,16.092 l-2.773-3.657h1.727l2.864,3.657H8.818z M12,16.092l-2.773-3.657h1.727l2.864,3.657H12z M15.637,16.092l-2.773-3.657h1.727 l2.864,3.657H15.637z M19.728,16.092h-0.455l-2.773-3.657h1.727l1.501,1.916V16.092z"/>
		</g>
		<g id="sync-shape">
			<path
				d="M3.2,22h3.3h10.8h3.3c0.5,0,0.9-0.4,0.9-0.9V20c0-1-0.5-1.9-1.2-2.5c-2.3-1.8-4.6-2.9-5.1-3.1				 c-0.1,0-0.1-0.1-0.1-0.2v-1.6c0.3-0.5,0.4-1,0.5-1.5c0.2,0.1,0.6,0.1,1-1.3c0.3-1.1,0.1-1.5-0.2-1.6c0.9-4.4-1.1-4.5-1.1-4.5				 S15,3.1,14.1,2.6c-0.5-0.3-1.3-0.6-2.3-0.5c-0.4,0-0.7,0.1-1,0.2c-0.4,0.1-0.7,0.3-1,0.5C9.4,3.1,9.1,3.3,8.7,3.7				 c-0.5,0.5-1,1.2-1.1,2C7.4,6.4,7.4,7.1,7.7,7.9C7.3,7.8,6.9,8,7.3,9.5c0.3,1.1,0.6,1.4,0.8,1.4c0.1,0.6,0.3,1.3,0.7,1.9v1.4				 c0,0.1,0,0.1-0.1,0.2c-0.5,0.2-2.8,1.4-5.1,3.1C2.8,18.1,2.3,19,2.3,20v1.1C2.3,21.6,2.7,22,3.2,22"
				style="fill: #f1f1f1"
			/>
		</g>
		<g id="search-shape">
			<path d="M20.6,19.6l-4.4-4.5c2.4-2.9,2.4-7.1,0.2-10c-2.3-3-6.3-3.9-9.6-2.3c-3.3,1.6-5.1,5.3-4.3,9 c0.8,3.7,4,6.3,7.7,6.3c1.5,0,3-0.4,4.3-1.3l4.5,4.6c0.3,0.3,0.8,0.4,1.2,0.3c0.4-0.1,0.7-0.4,0.9-0.9S20.9,19.9,20.6,19.6z M10.1,16c-3.3,0-6-2.7-6-6.1c0-3.4,2.7-6.1,6-6.1c3.3,0,6,2.7,6,6.1C16.1,13.3,13.4,16,10.1,16z"/>
			<path d="M10.1,5.3c-2.5,0-4.6,2.1-4.6,4.7c0,1.2,0.5,2.4,1.4,3.3c0.9,0.9,2,1.4,3.3,1.4c2.5,0,4.6-2.1,4.6-4.7 C14.7,7.4,12.7,5.3,10.1,5.3z M10,7.9c-1,0-1.8,0.8-1.8,1.8c0,0.4-0.3,0.8-0.8,0.8s-0.8-0.4-0.8-0.8c0-1.9,1.5-3.4,3.3-3.4h0 c0.4,0,0.8,0.4,0.8,0.8S10.4,7.9,10,7.9z"/>
		</g>
		<g id="experimental-shape">
			<path d="M19.173,16.163c0.004,0.04,0.007,0.08,0.007,0.121c0,1.748-3.197,3.165-7.14,3.165 c-3.943,0-7.14-1.417-7.14-3.165c0 -0.037,0.003-0.073,0.006-0.109C3.11,16.572,2,17.243,2,18.341C2,20.362,6.477,22,12,22 c5.523,0,10-1.638,10-3.659 C22,17.22,20.922,16.553,19.173,16.163z"/>
			<path d="M18.224,15.979c0.006-0.11-0.018-0.285-0.054-0.39c0,0-0.762-2.205-1.176-3.403 c-0.624-1.807-2.112-6.139-2.112-6.139c-0.036-0.104-0.031-0.273,0.01-0.376l0.497-1.234c0.041-0.102,0.116-0.266,0.166-0.364 l0.986-1.942c0.05-0.098,0.013-0.133-0.081-0.077L9.965,5.871c-0.095,0.056-0.203,0.186-0.24,0.29c0,0-0.252,0.7-0.412,1.144 C8.64,9.173,7.968,11.04,7.296,12.908c-0.26,0.723-0.52,1.446-0.78,2.168c-0.056,0.156-0.112,0.311-0.168,0.466 c-0.093,0.26-0.049,0.617,0.032,0.881c0.237,0.763,1.001,1.189,1.708,1.435c0.611,0.213,1.254,0.328,1.895,0.403 c0.895,0.105,1.805,0.14,2.706,0.112c1.356-0.041,2.767-0.261,4.004-0.846c0.429-0.203,0.854-0.459,1.174-0.816 c0.121-0.135,0.226-0.287,0.297-0.455C18.215,16.134,18.224,15.979,18.224,15.979z M14.063,16.131 c0.019,0.108-0.046,0.156-0.143,0.104l-1.466-0.772c-0.097-0.052-0.257-0.052-0.354,0l-1.466,0.773 c-0.097,0.052-0.162,0.004-0.143-0.104l0.28-1.636c0.019-0.109-0.031-0.261-0.109-0.338l-1.186-1.158 c-0.079-0.077-0.054-0.153,0.055-0.169l1.638-0.239c0.109-0.016,0.238-0.11,0.286-0.209l0.733-1.488 c0.049-0.099,0.128-0.099,0.177,0l0.733,1.488c0.049,0.099,0.178,0.193,0.286,0.209l1.639,0.239 c0.109,0.016,0.134,0.092,0.055,0.169l-1.186,1.158c-0.079,0.077-0.128,0.229-0.109,0.338L14.063,16.131z"/>
		</g>
	</defs>

	<use id="general" href="#general-shape"/>
	<use id="general-native" href="#general-shape"/>
	<use id="home" href="#home-shape"/>
	<use id="home-native" href="#home-shape"/>
	<use id="privacy" href="#privacy-shape"/>
	<use id="privacy-native" href="#privacy-shape"/>
	<use id="sync" href="#sync-shape"/>
	<use id="sync-native" href="#sync-shape"/>
	<use id="search" href="#search-shape"/>
	<use id="search-native" href="#search-shape"/>
	<use id="experimental" href="#experimental-shape"/>
	<use id="experimental-native" href="#experimental-shape"/>
</svg>
